<?xml version="1.0" encoding="UTF-8"?>
<svg xmlns="http://www.w3.org/2000/svg" xmlns:xlink="http://www.w3.org/1999/xlink" viewBox="0 0 100 100" width="100px" height="100px">
<g id="surface184309529">
<path style=" stroke:none;fill-rule:nonzero;fill:rgb(60.784316%,34.901962%,71.372551%);fill-opacity:1;" d="M 48 4 C 33.664062 4 22 20.585938 22 40.972656 C 22 51.160156 24.96875 60.308594 29.683594 66.984375 C 28.558594 68.453125 28 70.230469 28 72 C 28 73.945312 28.636719 75.914062 30.003906 77.453125 C 31.371094 78.992188 33.5 80 36 80 C 38.5 80 40.628906 78.992188 41.996094 77.453125 C 43.363281 75.914062 44 73.945312 44 72 C 44 70.054688 43.363281 68.085938 41.996094 66.546875 C 40.628906 65.007812 38.5 64 36 64 C 34.835938 64 33.765625 64.234375 32.800781 64.625 C 28.636719 58.636719 26 50.289062 26 40.972656 C 26 22.789062 35.871094 8 48 8 C 58.839844 8 67.847656 19.820312 69.648438 35.300781 C 71.0625 35.839844 72.464844 36.445312 73.855469 37.113281 C 72.492188 18.535156 61.421875 4 48 4 Z M 44 30 C 41.5 30 39.371094 31.007812 38.003906 32.546875 C 36.636719 34.085938 36 36.054688 36 38 C 36 39.945312 36.636719 41.914062 38.003906 43.453125 C 39.371094 44.992188 41.5 46 44 46 C 46.5 46 48.628906 44.992188 49.996094 43.453125 C 50.851562 42.492188 51.386719 41.355469 51.695312 40.167969 C 58.851562 39.859375 66.890625 41.972656 74.285156 46.40625 C 90.074219 55.871094 98.027344 72.375 92.011719 83.191406 C 89.863281 87.054688 86.113281 89.796875 81.171875 91.117188 C 74.246094 92.972656 65.742188 91.832031 57.625 88.160156 C 56.453125 89.101562 55.214844 89.992188 53.9375 90.855469 C 60.585938 94.214844 67.625 95.992188 74.125 95.992188 C 76.945312 95.992188 79.667969 95.660156 82.207031 94.980469 C 88.222656 93.371094 92.820312 89.964844 95.507812 85.132812 C 102.554688 72.449219 93.957031 53.539062 76.339844 42.976562 C 68.386719 38.207031 59.652344 35.875 51.773438 36.128906 C 51.488281 34.832031 50.921875 33.589844 49.996094 32.546875 C 48.628906 31.007812 46.5 30 44 30 Z M 44 34 C 45.5 34 46.371094 34.492188 47.003906 35.203125 C 47.636719 35.914062 48 36.945312 48 38 C 48 39.054688 47.636719 40.085938 47.003906 40.796875 C 46.371094 41.507812 45.5 42 44 42 C 42.5 42 41.628906 41.507812 40.996094 40.796875 C 40.363281 40.085938 40 39.054688 40 38 C 40 36.945312 40.363281 35.914062 40.996094 35.203125 C 41.628906 34.492188 42.5 34 44 34 Z M 18.324219 46.664062 C 4.394531 57.542969 -1.796875 73.8125 4.496094 85.132812 C 7.183594 89.964844 11.78125 93.367188 17.796875 94.976562 C 20.339844 95.65625 23.058594 95.992188 25.878906 95.992188 C 33.480469 95.992188 41.820312 93.574219 49.414062 89.023438 C 58.527344 83.5625 65.085938 75.867188 68.425781 67.957031 C 70.734375 67.847656 72.710938 66.898438 73.996094 65.453125 C 75.363281 63.914062 76 61.945312 76 60 C 76 58.054688 75.363281 56.085938 73.996094 54.546875 C 72.628906 53.007812 70.5 52 68 52 C 65.5 52 63.371094 53.007812 62.003906 54.546875 C 60.636719 56.085938 60 58.054688 60 60 C 60 61.945312 60.636719 63.914062 62.003906 65.453125 C 62.667969 66.199219 63.519531 66.816406 64.5 67.257812 C 61.363281 74.074219 55.429688 80.753906 47.355469 85.59375 C 37.855469 91.292969 27.191406 93.355469 18.828125 91.117188 C 13.882812 89.792969 10.136719 87.054688 7.992188 83.191406 C 2.90625 74.046875 7.828125 60.855469 19.003906 51.269531 C 18.714844 49.765625 18.488281 48.226562 18.324219 46.664062 Z M 68 56 C 69.5 56 70.371094 56.492188 71.003906 57.203125 C 71.636719 57.914062 72 58.945312 72 60 C 72 61.054688 71.636719 62.085938 71.003906 62.796875 C 70.371094 63.507812 69.5 64 68 64 C 66.5 64 65.628906 63.507812 64.996094 62.796875 C 64.363281 62.085938 64 61.054688 64 60 C 64 58.945312 64.363281 57.914062 64.996094 57.203125 C 65.628906 56.492188 66.5 56 68 56 Z M 36 68 C 37.5 68 38.371094 68.492188 39.003906 69.203125 C 39.636719 69.914062 40 70.945312 40 72 C 40 73.054688 39.636719 74.085938 39.003906 74.796875 C 38.371094 75.507812 37.5 76 36 76 C 34.5 76 33.628906 75.507812 32.996094 74.796875 C 32.363281 74.085938 32 73.054688 32 72 C 32 70.945312 32.363281 69.914062 32.996094 69.203125 C 33.628906 68.492188 34.5 68 36 68 Z M 36 68 "/>
</g>
</svg>
